# xmcd
#
# Track frame offsets:
#	150
#	16172
#	34807
#	45372
#	56604
#	71815
#	92355
#	105742
#	118852
#	130131
#	140056
#	151125
#	161187
#	168696
#	177124
#	186277
#	199591
#	211332
#	220240
#	232312
#	243922
#	260592
#	272717
#
# Disc length: 3745 seconds
# Revision: 0
# Processed by: cddbd v1.5.2PL0 Copyright (c) Steve Scherf et al.
# Submitted via: dBpowerAMP V12.0
#
DISCID=530e9f17
DTITLE=Skinner Family Band - Instrmental Special and Bluegrass Favorites
DYEAR=1900
DGENRE=Bluegrass
TTITLE0=Yes Sir She's My Baby
TTITLE1=Grandfather's Clock
TTITLE2=Limehouse Blues
TTITLE3=Redskin Rag
TTITLE4=Memphis Five String
TTITLE5=Remington Ride
TTITLE6=Reno Ride
TTITLE7=Rawhide
TTITLE8=Under The Double Eagle
TTITLE9=A; - The Way To Reno
TTITLE10=Bye Bye Blues
TTITLE11=I Know You're Married
TTITLE12=Lonesome Road Blues
TTITLE13=I Only Want A Buddy
TTITLE14=Weeping Willow Tree
TTITLE15=Just About Then
TTITLE16=The World Is Waiting For The Sunrise
TTITLE17=Used To Be
TTITLE18=Banjo Signal
TTITLE19=I'm Jealous Of You
TTITLE20=Whispering
TTITLE21=Unwanted Love
TTITLE22=Charlotte Breakdown
EXTD=
EXTT0=
EXTT1=
EXTT2=
EXTT3=
EXTT4=
EXTT5=
EXTT6=
EXTT7=
EXTT8=
EXTT9=
EXTT10=
EXTT11=
EXTT12=
EXTT13=
EXTT14=
EXTT15=
EXTT16=
EXTT17=
EXTT18=
EXTT19=
EXTT20=
EXTT21=
EXTT22=
PLAYORDER=
